<mxfile host="Electron" agent="Mozilla/5.0 (Windows NT 10.0; Win64; x64) AppleWebKit/537.36 (KHTML, like Gecko) draw.io/24.7.8 Chrome/128.0.6613.36 Electron/32.0.1 Safari/537.36" version="24.7.8">
  <diagram name="Page-1" id="r7YwMuAUTQoA_-DzS-Do">
    <mxGraphModel dx="740" dy="438" grid="1" gridSize="10" guides="1" tooltips="1" connect="1" arrows="1" fold="1" page="1" pageScale="1" pageWidth="850" pageHeight="1100" math="0" shadow="0">
      <root>
        <mxCell id="0" />
        <mxCell id="1" parent="0" />
        <mxCell id="z97J1kHBHy0i6Ybfp2aV-21" style="edgeStyle=orthogonalEdgeStyle;rounded=0;orthogonalLoop=1;jettySize=auto;html=1;exitX=0.5;exitY=1;exitDx=0;exitDy=0;entryX=0.5;entryY=0;entryDx=0;entryDy=0;" edge="1" parent="1" source="z97J1kHBHy0i6Ybfp2aV-1" target="z97J1kHBHy0i6Ybfp2aV-3">
          <mxGeometry relative="1" as="geometry" />
        </mxCell>
        <mxCell id="z97J1kHBHy0i6Ybfp2aV-1" value="&lt;p&gt;&lt;font style=&quot;font-size: 14px;&quot; face=&quot;Helvetica&quot;&gt;Start&lt;/font&gt;&lt;/p&gt;" style="ellipse;whiteSpace=wrap;html=1;fontFamily=Helvetica;fillColor=none;" vertex="1" parent="1">
          <mxGeometry x="375" y="20" width="130" height="60" as="geometry" />
        </mxCell>
        <mxCell id="z97J1kHBHy0i6Ybfp2aV-22" style="edgeStyle=orthogonalEdgeStyle;rounded=0;orthogonalLoop=1;jettySize=auto;html=1;exitX=0.5;exitY=1;exitDx=0;exitDy=0;entryX=0.5;entryY=0;entryDx=0;entryDy=0;" edge="1" parent="1" source="z97J1kHBHy0i6Ybfp2aV-3" target="z97J1kHBHy0i6Ybfp2aV-12">
          <mxGeometry relative="1" as="geometry" />
        </mxCell>
        <mxCell id="z97J1kHBHy0i6Ybfp2aV-3" value="&lt;p&gt;&lt;span style=&quot;font-size: 14px; text-align: right; white-space-collapse: preserve; background-color: rgb(255, 255, 255);&quot;&gt;&lt;font face=&quot;Helvetica&quot;&gt;Initialize lattice with random spins&lt;/font&gt;&lt;/span&gt;&lt;/p&gt;" style="rounded=0;whiteSpace=wrap;html=1;fontColor=#000000;fillColor=none;strokeColor=default;" vertex="1" parent="1">
          <mxGeometry x="380" y="100" width="120" height="60" as="geometry" />
        </mxCell>
        <mxCell id="z97J1kHBHy0i6Ybfp2aV-30" style="edgeStyle=orthogonalEdgeStyle;rounded=0;orthogonalLoop=1;jettySize=auto;html=1;exitX=0.5;exitY=1;exitDx=0;exitDy=0;entryX=0.5;entryY=0;entryDx=0;entryDy=0;" edge="1" parent="1" source="z97J1kHBHy0i6Ybfp2aV-4" target="z97J1kHBHy0i6Ybfp2aV-8">
          <mxGeometry relative="1" as="geometry" />
        </mxCell>
        <mxCell id="z97J1kHBHy0i6Ybfp2aV-4" value="&lt;p&gt;&lt;font face=&quot;Helvetica&quot;&gt;&lt;span style=&quot;font-size: 14px;&quot;&gt;Is&amp;nbsp;&lt;/span&gt;&lt;span style=&quot;font-size: 14px; text-align: start;&quot;&gt;ΔE=0?&lt;/span&gt;&lt;/font&gt;&lt;/p&gt;" style="rhombus;whiteSpace=wrap;html=1;" vertex="1" parent="1">
          <mxGeometry x="370" y="360" width="140" height="80" as="geometry" />
        </mxCell>
        <mxCell id="z97J1kHBHy0i6Ybfp2aV-24" style="edgeStyle=orthogonalEdgeStyle;rounded=0;orthogonalLoop=1;jettySize=auto;html=1;exitX=0.5;exitY=1;exitDx=0;exitDy=0;entryX=0.5;entryY=0;entryDx=0;entryDy=0;" edge="1" parent="1" source="z97J1kHBHy0i6Ybfp2aV-5" target="z97J1kHBHy0i6Ybfp2aV-4">
          <mxGeometry relative="1" as="geometry" />
        </mxCell>
        <mxCell id="z97J1kHBHy0i6Ybfp2aV-41" style="edgeStyle=orthogonalEdgeStyle;rounded=0;orthogonalLoop=1;jettySize=auto;html=1;exitX=1;exitY=0.5;exitDx=0;exitDy=0;entryX=0.5;entryY=0;entryDx=0;entryDy=0;" edge="1" parent="1" source="z97J1kHBHy0i6Ybfp2aV-5" target="z97J1kHBHy0i6Ybfp2aV-13">
          <mxGeometry relative="1" as="geometry">
            <mxPoint x="600" y="310" as="targetPoint" />
          </mxGeometry>
        </mxCell>
        <mxCell id="z97J1kHBHy0i6Ybfp2aV-5" value="&lt;p&gt;&lt;font style=&quot;font-size: 14px;&quot;&gt;Is&amp;nbsp;&lt;span style=&quot;font-family: &amp;quot;Google Sans&amp;quot;, Arial, sans-serif; text-align: start;&quot;&gt;&amp;nbsp;ΔE&amp;lt;=0?&lt;/span&gt;&amp;nbsp;&lt;/font&gt;&lt;/p&gt;" style="rhombus;whiteSpace=wrap;html=1;" vertex="1" parent="1">
          <mxGeometry x="370" y="260" width="140" height="80" as="geometry" />
        </mxCell>
        <mxCell id="z97J1kHBHy0i6Ybfp2aV-33" style="edgeStyle=orthogonalEdgeStyle;rounded=0;orthogonalLoop=1;jettySize=auto;html=1;exitX=1;exitY=0.5;exitDx=0;exitDy=0;entryX=0;entryY=0.5;entryDx=0;entryDy=0;" edge="1" parent="1" source="z97J1kHBHy0i6Ybfp2aV-7" target="z97J1kHBHy0i6Ybfp2aV-18">
          <mxGeometry relative="1" as="geometry" />
        </mxCell>
        <mxCell id="z97J1kHBHy0i6Ybfp2aV-7" value="&lt;p style=&quot;&quot;&gt;&lt;font face=&quot;Helvetica&quot;&gt;&lt;span style=&quot;font-size: 14px; white-space-collapse: preserve;&quot;&gt;Add change in observables&lt;/span&gt;&lt;/font&gt;&lt;/p&gt;" style="rounded=0;whiteSpace=wrap;html=1;align=center;" vertex="1" parent="1">
          <mxGeometry x="530" y="630" width="120" height="60" as="geometry" />
        </mxCell>
        <mxCell id="z97J1kHBHy0i6Ybfp2aV-43" style="edgeStyle=orthogonalEdgeStyle;rounded=0;orthogonalLoop=1;jettySize=auto;html=1;exitX=0.5;exitY=1;exitDx=0;exitDy=0;entryX=0.5;entryY=0;entryDx=0;entryDy=0;" edge="1" parent="1" source="z97J1kHBHy0i6Ybfp2aV-8" target="z97J1kHBHy0i6Ybfp2aV-17">
          <mxGeometry relative="1" as="geometry" />
        </mxCell>
        <mxCell id="z97J1kHBHy0i6Ybfp2aV-44" style="edgeStyle=orthogonalEdgeStyle;rounded=0;orthogonalLoop=1;jettySize=auto;html=1;exitX=1;exitY=0.5;exitDx=0;exitDy=0;entryX=0;entryY=0.5;entryDx=0;entryDy=0;" edge="1" parent="1" source="z97J1kHBHy0i6Ybfp2aV-8" target="z97J1kHBHy0i6Ybfp2aV-13">
          <mxGeometry relative="1" as="geometry" />
        </mxCell>
        <mxCell id="z97J1kHBHy0i6Ybfp2aV-8" value="&lt;p style=&quot;font-size: 14px;&quot;&gt;&lt;font face=&quot;Helvetica&quot;&gt;&lt;font style=&quot;font-size: 14px;&quot;&gt;Is random&lt;br&gt;&lt;/font&gt;&lt;font style=&quot;font-size: 14px;&quot;&gt;&amp;nbsp;number &amp;gt; 0.5?&lt;/font&gt;&lt;/font&gt;&lt;/p&gt;" style="rhombus;whiteSpace=wrap;html=1;" vertex="1" parent="1">
          <mxGeometry x="370" y="460" width="140" height="80" as="geometry" />
        </mxCell>
        <mxCell id="z97J1kHBHy0i6Ybfp2aV-45" style="edgeStyle=orthogonalEdgeStyle;rounded=0;orthogonalLoop=1;jettySize=auto;html=1;exitX=0;exitY=0.5;exitDx=0;exitDy=0;" edge="1" parent="1" source="z97J1kHBHy0i6Ybfp2aV-9">
          <mxGeometry relative="1" as="geometry">
            <mxPoint x="440" y="580" as="targetPoint" />
          </mxGeometry>
        </mxCell>
        <mxCell id="z97J1kHBHy0i6Ybfp2aV-9" value="&lt;span style=&quot;font-size: 14px; text-align: right; white-space-collapse: preserve;&quot;&gt;&lt;font style=&quot;&quot; face=&quot;Helvetica&quot;&gt;Store changes in observables&lt;/font&gt;&lt;/span&gt;" style="rounded=0;whiteSpace=wrap;html=1;" vertex="1" parent="1">
          <mxGeometry x="530" y="550" width="120" height="60" as="geometry" />
        </mxCell>
        <mxCell id="z97J1kHBHy0i6Ybfp2aV-11" value="&lt;font face=&quot;Helvetica&quot; style=&quot;font-size: 14px;&quot;&gt;End Program&lt;/font&gt;" style="ellipse;whiteSpace=wrap;html=1;" vertex="1" parent="1">
          <mxGeometry x="375" y="760" width="130" height="60" as="geometry" />
        </mxCell>
        <mxCell id="z97J1kHBHy0i6Ybfp2aV-23" style="edgeStyle=orthogonalEdgeStyle;rounded=0;orthogonalLoop=1;jettySize=auto;html=1;exitX=0.5;exitY=1;exitDx=0;exitDy=0;entryX=0.5;entryY=0;entryDx=0;entryDy=0;" edge="1" parent="1" source="z97J1kHBHy0i6Ybfp2aV-12" target="z97J1kHBHy0i6Ybfp2aV-5">
          <mxGeometry relative="1" as="geometry" />
        </mxCell>
        <mxCell id="z97J1kHBHy0i6Ybfp2aV-12" value="&lt;p&gt;&lt;span style=&quot;font-size: 14px; text-align: right; white-space-collapse: preserve; background-color: rgb(255, 255, 255);&quot;&gt;&lt;font face=&quot;Helvetica&quot;&gt;Choose random spot on lattice&lt;/font&gt;&lt;/span&gt;&lt;/p&gt;" style="rounded=0;whiteSpace=wrap;html=1;fontColor=#000000;fillColor=none;strokeColor=default;" vertex="1" parent="1">
          <mxGeometry x="380" y="180" width="120" height="60" as="geometry" />
        </mxCell>
        <mxCell id="z97J1kHBHy0i6Ybfp2aV-46" style="edgeStyle=orthogonalEdgeStyle;rounded=0;orthogonalLoop=1;jettySize=auto;html=1;exitX=0.5;exitY=1;exitDx=0;exitDy=0;entryX=0.5;entryY=0;entryDx=0;entryDy=0;" edge="1" parent="1" source="z97J1kHBHy0i6Ybfp2aV-13" target="z97J1kHBHy0i6Ybfp2aV-9">
          <mxGeometry relative="1" as="geometry" />
        </mxCell>
        <mxCell id="z97J1kHBHy0i6Ybfp2aV-13" value="&lt;p&gt;&lt;span style=&quot;font-size: 14px; text-align: right; white-space-collapse: preserve; background-color: rgb(255, 255, 255);&quot;&gt;&lt;font face=&quot;Helvetica&quot;&gt;Flip spin at choosen spot&lt;/font&gt;&lt;/span&gt;&lt;/p&gt;" style="rounded=0;whiteSpace=wrap;html=1;fontColor=#000000;fillColor=none;strokeColor=default;" vertex="1" parent="1">
          <mxGeometry x="530" y="470" width="120" height="60" as="geometry" />
        </mxCell>
        <mxCell id="z97J1kHBHy0i6Ybfp2aV-32" style="edgeStyle=orthogonalEdgeStyle;rounded=0;orthogonalLoop=1;jettySize=auto;html=1;exitX=1;exitY=0.5;exitDx=0;exitDy=0;entryX=0;entryY=0.5;entryDx=0;entryDy=0;" edge="1" parent="1" source="z97J1kHBHy0i6Ybfp2aV-17" target="z97J1kHBHy0i6Ybfp2aV-7">
          <mxGeometry relative="1" as="geometry" />
        </mxCell>
        <mxCell id="z97J1kHBHy0i6Ybfp2aV-37" style="edgeStyle=orthogonalEdgeStyle;rounded=0;orthogonalLoop=1;jettySize=auto;html=1;exitX=0;exitY=0.5;exitDx=0;exitDy=0;entryX=0;entryY=0.5;entryDx=0;entryDy=0;" edge="1" parent="1" source="z97J1kHBHy0i6Ybfp2aV-17" target="z97J1kHBHy0i6Ybfp2aV-12">
          <mxGeometry relative="1" as="geometry" />
        </mxCell>
        <mxCell id="z97J1kHBHy0i6Ybfp2aV-17" value="&lt;p&gt;&lt;font style=&quot;font-size: 14px;&quot; face=&quot;Helvetica&quot;&gt;End of N loop?&lt;/font&gt;&lt;/p&gt;" style="rhombus;whiteSpace=wrap;html=1;" vertex="1" parent="1">
          <mxGeometry x="370" y="620" width="140" height="80" as="geometry" />
        </mxCell>
        <mxCell id="z97J1kHBHy0i6Ybfp2aV-34" style="edgeStyle=orthogonalEdgeStyle;rounded=0;orthogonalLoop=1;jettySize=auto;html=1;exitX=0.5;exitY=0;exitDx=0;exitDy=0;entryX=1;entryY=0.5;entryDx=0;entryDy=0;" edge="1" parent="1" source="z97J1kHBHy0i6Ybfp2aV-18" target="z97J1kHBHy0i6Ybfp2aV-12">
          <mxGeometry relative="1" as="geometry">
            <mxPoint x="740" y="200" as="targetPoint" />
          </mxGeometry>
        </mxCell>
        <mxCell id="z97J1kHBHy0i6Ybfp2aV-35" style="edgeStyle=orthogonalEdgeStyle;rounded=0;orthogonalLoop=1;jettySize=auto;html=1;exitX=0.5;exitY=1;exitDx=0;exitDy=0;entryX=1;entryY=0.5;entryDx=0;entryDy=0;" edge="1" parent="1" source="z97J1kHBHy0i6Ybfp2aV-18" target="z97J1kHBHy0i6Ybfp2aV-19">
          <mxGeometry relative="1" as="geometry" />
        </mxCell>
        <mxCell id="z97J1kHBHy0i6Ybfp2aV-18" value="&lt;p style=&quot;font-size: 14px; line-height: 30%;&quot;&gt;End of MC Loop?&lt;/p&gt;" style="rhombus;whiteSpace=wrap;html=1;fontSize=14;verticalAlign=middle;" vertex="1" parent="1">
          <mxGeometry x="680" y="620" width="140" height="80" as="geometry" />
        </mxCell>
        <mxCell id="z97J1kHBHy0i6Ybfp2aV-36" style="edgeStyle=orthogonalEdgeStyle;rounded=0;orthogonalLoop=1;jettySize=auto;html=1;exitX=0;exitY=0.5;exitDx=0;exitDy=0;entryX=1;entryY=0.5;entryDx=0;entryDy=0;" edge="1" parent="1" source="z97J1kHBHy0i6Ybfp2aV-19" target="z97J1kHBHy0i6Ybfp2aV-11">
          <mxGeometry relative="1" as="geometry" />
        </mxCell>
        <mxCell id="z97J1kHBHy0i6Ybfp2aV-19" value="&lt;p style=&quot;text-align: right;&quot;&gt;&lt;font face=&quot;Helvetica&quot;&gt;&lt;span style=&quot;font-size: 14px; white-space-collapse: preserve;&quot;&gt;Output data&lt;/span&gt;&lt;/font&gt;&lt;/p&gt;" style="rounded=0;whiteSpace=wrap;html=1;" vertex="1" parent="1">
          <mxGeometry x="530" y="760" width="120" height="60" as="geometry" />
        </mxCell>
        <mxCell id="z97J1kHBHy0i6Ybfp2aV-38" value="&lt;font style=&quot;font-size: 14px;&quot;&gt;Yes&lt;/font&gt;" style="text;html=1;align=center;verticalAlign=middle;resizable=0;points=[];autosize=1;strokeColor=none;fillColor=none;" vertex="1" parent="1">
          <mxGeometry x="435" y="340" width="50" height="30" as="geometry" />
        </mxCell>
        <mxCell id="z97J1kHBHy0i6Ybfp2aV-39" value="&lt;font style=&quot;font-size: 14px;&quot;&gt;Yes&lt;/font&gt;" style="text;html=1;align=center;verticalAlign=middle;resizable=0;points=[];autosize=1;strokeColor=none;fillColor=none;" vertex="1" parent="1">
          <mxGeometry x="435" y="440" width="50" height="30" as="geometry" />
        </mxCell>
        <mxCell id="z97J1kHBHy0i6Ybfp2aV-40" value="&lt;font style=&quot;font-size: 14px;&quot;&gt;Yes&lt;/font&gt;" style="text;html=1;align=center;verticalAlign=middle;resizable=0;points=[];autosize=1;strokeColor=none;fillColor=none;" vertex="1" parent="1">
          <mxGeometry x="485" y="470" width="50" height="30" as="geometry" />
        </mxCell>
        <mxCell id="z97J1kHBHy0i6Ybfp2aV-47" value="&lt;font style=&quot;font-size: 14px;&quot;&gt;No&lt;/font&gt;" style="text;html=1;align=center;verticalAlign=middle;resizable=0;points=[];autosize=1;strokeColor=none;fillColor=none;" vertex="1" parent="1">
          <mxGeometry x="500" y="270" width="40" height="30" as="geometry" />
        </mxCell>
        <mxCell id="z97J1kHBHy0i6Ybfp2aV-48" value="&lt;font style=&quot;font-size: 14px;&quot;&gt;No&lt;/font&gt;" style="text;html=1;align=center;verticalAlign=middle;resizable=0;points=[];autosize=1;strokeColor=none;fillColor=none;" vertex="1" parent="1">
          <mxGeometry x="350" y="630" width="40" height="30" as="geometry" />
        </mxCell>
        <mxCell id="z97J1kHBHy0i6Ybfp2aV-49" value="&lt;font style=&quot;font-size: 14px;&quot;&gt;Yes&lt;/font&gt;" style="text;html=1;align=center;verticalAlign=middle;resizable=0;points=[];autosize=1;strokeColor=none;fillColor=none;" vertex="1" parent="1">
          <mxGeometry x="480" y="630" width="50" height="30" as="geometry" />
        </mxCell>
        <mxCell id="z97J1kHBHy0i6Ybfp2aV-52" value="&lt;font style=&quot;font-size: 14px;&quot;&gt;Yes&lt;/font&gt;" style="text;html=1;align=center;verticalAlign=middle;resizable=0;points=[];autosize=1;strokeColor=none;fillColor=none;" vertex="1" parent="1">
          <mxGeometry x="740" y="700" width="50" height="30" as="geometry" />
        </mxCell>
        <mxCell id="z97J1kHBHy0i6Ybfp2aV-53" value="&lt;font style=&quot;font-size: 14px;&quot;&gt;No&lt;/font&gt;" style="text;html=1;align=center;verticalAlign=middle;resizable=0;points=[];autosize=1;strokeColor=none;fillColor=none;" vertex="1" parent="1">
          <mxGeometry x="745" y="590" width="40" height="30" as="geometry" />
        </mxCell>
        <mxCell id="z97J1kHBHy0i6Ybfp2aV-54" value="&lt;font style=&quot;font-size: 14px;&quot;&gt;No&lt;/font&gt;" style="text;html=1;align=center;verticalAlign=middle;resizable=0;points=[];autosize=1;strokeColor=none;fillColor=none;" vertex="1" parent="1">
          <mxGeometry x="435" y="540" width="40" height="30" as="geometry" />
        </mxCell>
      </root>
    </mxGraphModel>
  </diagram>
</mxfile>
